<svg width="24" height="23" viewBox="0 0 24 23" fill="none" xmlns="http://www.w3.org/2000/svg">
<path d="M21.71 19.4446L18 15.9179C19.4401 14.1971 20.1375 12.013 19.9488 9.81458C19.7601 7.61616 18.6997 5.57058 16.9855 4.09845C15.2714 2.62632 13.0338 1.83953 10.7329 1.89987C8.43203 1.9602 6.24272 2.86308 4.61514 4.42284C2.98756 5.98261 2.04543 8.0807 1.98247 10.2857C1.91951 12.4907 2.7405 14.6351 4.27664 16.2778C5.81278 17.9205 7.9473 18.9368 10.2413 19.1176C12.5353 19.2984 14.8144 18.6301 16.61 17.25L20.29 20.7767C20.383 20.8665 20.4936 20.9378 20.6154 20.9864C20.7373 21.0351 20.868 21.0601 21 21.0601C21.132 21.0601 21.2627 21.0351 21.3846 20.9864C21.5064 20.9378 21.617 20.8665 21.71 20.7767C21.8902 20.598 21.991 20.3592 21.991 20.1106C21.991 19.8621 21.8902 19.6233 21.71 19.4446V19.4446ZM11 17.25C9.61553 17.25 8.26215 16.8566 7.111 16.1194C5.95986 15.3823 5.06265 14.3346 4.53284 13.1088C4.00303 11.883 3.8644 10.5342 4.1345 9.23294C4.4046 7.93165 5.07128 6.73634 6.05025 5.79816C7.02922 4.85998 8.2765 4.22107 9.63436 3.96223C10.9922 3.70339 12.3997 3.83624 13.6788 4.34397C14.9579 4.85171 16.0511 5.71154 16.8203 6.81472C17.5895 7.9179 18 9.21488 18 10.5417C18 12.3208 17.2625 14.0271 15.9497 15.2852C14.637 16.5432 12.8565 17.25 11 17.25V17.25Z" fill="black"/>
</svg>
